# xmcd
#
# Track frame offsets: 
#        150
#        15540
#        30202
#        52692
#        64805
#        79400
#        93795
#        109007
#        129987
#        142200
#        155685
#        167980
#        180850
#        194252
#        207645
#        220355
#        234080
#        245510
#        264047
#        281385
#
# Disc length: 4032 seconds
#
# Revision: 2
# Processed by: cddbd v1.5.2PL0 Copyright (c) Steve Scherf et al.
# Submitted via: ExactAudioCopyFreeDBPlugin 1.0
#
DISCID=090fbe14
DTITLE=Ann Peebles - Ann Peebles:  St. Louis Woman - Memphis Soul [Hi 
DTITLE=Records box set]
DYEAR=1996
DGENRE=Soul
TTITLE0=I Still Love You
TTITLE1=Steal Away
TTITLE2=I Needed Somebody
TTITLE3=(You Keep Me) Hanging On
TTITLE4=Walk Away
TTITLE5=Until You Came Into My Life
TTITLE6=Heartaches, Heartaches
TTITLE7=You Can't Hold a Man
TTITLE8=Troubles, Heartaches and Sadness
TTITLE9=It Was Jealousy
TTITLE10=Put Yourself in My Place
TTITLE11=I've Been There Before
TTITLE12=Won't You Try Me
TTITLE13=One Way Street
TTITLE14=A Love Vibration
TTITLE15=Lovin' You Without Love
TTITLE16=I'm Leaving You
TTITLE17=I'm So Thankful
TTITLE18=I'd Rather Leave While I'm in Love
TTITLE19=You're Gonna Make Me Cry
EXTD=
EXTT0=
EXTT1=
EXTT2=
EXTT3=
EXTT4=
EXTT5=
EXTT6=
EXTT7=
EXTT8=
EXTT9=
EXTT10=
EXTT11=
EXTT12=
EXTT13=
EXTT14=
EXTT15=
EXTT16=
EXTT17=
EXTT18=
EXTT19=
PLAYORDER=
